<?xml version="1.0" encoding="UTF-8"?>
<svg xmlns="http://www.w3.org/2000/svg" xmlns:xlink="http://www.w3.org/1999/xlink" viewBox="0 0 32 32" version="1.1" fill="#262626"><g id="surface1" fill="#262626"><path style=" " d="M 12.5 3 C 10.578125 3 9 4.578125 9 6.5 C 9 8.421875 10.578125 10 12.5 10 C 14.421875 10 16 8.421875 16 6.5 C 16 4.578125 14.421875 3 12.5 3 Z M 12.5 5 C 13.339844 5 14 5.660156 14 6.5 C 14 7.339844 13.339844 8 12.5 8 C 11.660156 8 11 7.339844 11 6.5 C 11 5.660156 11.660156 5 12.5 5 Z M 18.53125 7.40625 L 14.90625 11 L 10.84375 11 C 10.070313 11 9.359375 11.453125 9.03125 12.15625 L 7.28125 15.875 C 6.769531 16.972656 7.027344 18.175781 7.71875 18.96875 C 8.410156 19.761719 9.59375 20.199219 10.75 19.84375 L 14.6875 18.625 L 19.1875 21.84375 L 20.34375 20.21875 L 15.84375 17 C 15.335938 16.636719 14.691406 16.535156 14.09375 16.71875 L 12.1875 17.3125 L 14.0625 13 L 15.71875 13 L 16.03125 12.71875 L 19.9375 8.84375 Z M 22.5 9 C 20.03125 9 18 11.03125 18 13.5 C 18 15.96875 20.03125 18 22.5 18 C 24.96875 18 27 15.96875 27 13.5 C 27 11.03125 24.96875 9 22.5 9 Z M 22.5 11 C 23.878906 11 25 12.121094 25 13.5 C 25 14.878906 23.878906 16 22.5 16 C 21.121094 16 20 14.878906 20 13.5 C 20 12.121094 21.121094 11 22.5 11 Z M 10.84375 13 L 11.875 13 L 9.71875 17.9375 C 9.523438 17.894531 9.351563 17.804688 9.21875 17.65625 C 8.996094 17.402344 8.914063 17.097656 9.09375 16.71875 Z M 12.5 20 C 10.03125 20 8 22.03125 8 24.5 C 8 26.96875 10.03125 29 12.5 29 C 14.96875 29 17 26.96875 17 24.5 C 17 22.03125 14.96875 20 12.5 20 Z M 12.5 22 C 13.878906 22 15 23.121094 15 24.5 C 15 25.878906 13.878906 27 12.5 27 C 11.121094 27 10 25.878906 10 24.5 C 10 23.121094 11.121094 22 12.5 22 Z " fill="#262626"/></g></svg>
