<?xml version="1.0" encoding="UTF-8"?>
<svg xmlns="http://www.w3.org/2000/svg" xmlns:xlink="http://www.w3.org/1999/xlink" viewBox="0 0 32 32" version="1.1" fill="#262626"><g id="surface1" fill="#262626"><path style="fill:none;stroke-width:2;stroke-linecap:round;stroke-linejoin:miter;stroke:#262626;stroke-opacity:1;stroke-miterlimit:10" d="M 17 8 L 27 8 L 27 24 L 17 24 Z " fill="#262626"/><path style="fill:none;stroke-width:2;stroke-linecap:butt;stroke-linejoin:miter;stroke:#262626;stroke-opacity:1;stroke-miterlimit:10" d="M 16 5 L 5 7.445313 L 5 24.554688 L 16 27 L 17 27 L 17 5 Z " fill="#262626"/><path style=" " d="M 10.179688 20.824219 L 8 12 L 9.78125 11.875 L 11 17.5625 L 11.09375 17.5625 L 12.59375 11.625 L 14.675781 11.382813 L 12 21 Z " fill="#262626"/><path style="fill:none;stroke-width:2;stroke-linecap:butt;stroke-linejoin:miter;stroke:#262626;stroke-opacity:1;stroke-miterlimit:10" d="M 23 15 L 23 21 " fill="#262626"/><path style="fill:none;stroke-width:2;stroke-linecap:butt;stroke-linejoin:miter;stroke:#262626;stroke-opacity:1;stroke-miterlimit:10" d="M 17 12 L 20 12 " fill="#262626"/><path style=" " d="M 18 18 L 21 18 L 21 21 L 18 21 Z " fill="#262626"/><path style=" " d="M 25 12 L 23 14 L 21 12 L 23 10 Z " fill="#262626"/></g></svg>
